<svg width="current" height="current" viewBox="0 0 25 25" fill="none" xmlns="http://www.w3.org/2000/svg">
<path d="M12.4766 2.75C14.5318 2.75 16.4327 3.14999 18.1792 3.94998C19.9257 4.74997 21.3065 5.8378 22.3213 7.21344C23.3363 8.58903 23.8438 10.0895 23.8438 11.7149C23.8438 13.3403 23.3363 14.8429 22.3213 16.2228C21.3065 17.6027 19.9278 18.6926 18.1855 19.4926C16.4432 20.2925 14.5402 20.6926 12.4766 20.6926C11.8253 20.6926 11.1529 20.646 10.4594 20.5529C7.44842 22.6438 5.84572 23.702 5.65119 23.7274C5.55814 23.7613 5.46931 23.757 5.38475 23.7147C5.35091 23.6893 5.32555 23.6555 5.30863 23.6131C5.2917 23.5708 5.28327 23.5327 5.28327 23.4988V23.4481C5.33403 23.1179 5.71883 21.7423 6.43775 19.3212C4.8054 18.5085 3.50925 17.4313 2.5493 16.0895C1.58935 14.7477 1.10938 13.2895 1.10938 11.7149C1.10938 10.0895 1.61684 8.58903 2.63177 7.21344C3.6467 5.8378 5.02742 4.74997 6.77394 3.94998C8.52045 3.14999 10.4213 2.75 12.4766 2.75Z" fill="currentColor"/>
</svg>
